# xmcd CD database file
#
# Track frame offsets:
#	150
#	9526
#	36228
#	53877
#	80420
#	91551
#	114671
#	138330
#	168513
#	208152
#	228509
#	238851
#	268849
#	290000
#	316251
#
# Disc length: 4662 seconds
#
# Revision: 0
# Processed by: cddbd v1.5.2PL0 Copyright (c) Steve Scherf et al.
# Submitted via: CDex 1.51
#
DISCID=d312340f
DTITLE=Herbie Hancock - The Essential Herbie Hancock (Mastercuts)
DYEAR=2007
DGENRE=Jazz
TTITLE0=Afro Boogie
TTITLE1=Bunia
TTITLE2=Out Of This World (A.K.A 'T.C.B With Herbie' and 'Live And Awake')
TTITLE3=Kamili
TTITLE4=Far Cut
TTITLE5=Kawaida
TTITLE6=Scoochie
TTITLE7=Mr Lucky Theme (A.K.A 'Rock Your Soul')
TTITLE8=Baraka
TTITLE9=Witch Fire
TTITLE10=Hot and Heavy
TTITLE11=Curros' (Jammin' With Herbie)
TTITLE12=Day Dream (A.K.A 'Night Walkers' and 'Soul Power')
TTITLE13=Bird House (A.K.A 'Herbie's Blues')
TTITLE14=Hot Piano
EXTD=YEAR: 2007
EXTT0=
EXTT1=
EXTT2=
EXTT3=
EXTT4=
EXTT5=
EXTT6=
EXTT7=
EXTT8=
EXTT9=
EXTT10=
EXTT11=
EXTT12=
EXTT13=
EXTT14=
PLAYORDER=
